# xmcd
#
# Track frame offsets:
#	150
#	23157
#	46021
#	66963
#	98446
#	147924
#	174925
#	216281
#	238636
#	252824
#
# Disc length: 3625 seconds
#
# Revision: 1
# Processed by: cddbd v1.5PL3 Copyright (c) Steve Scherf et al.
# Submitted via: EasyCDDAExtractor 7.0.3.1
#
DISCID=7d0e270a
DTITLE=The Allman Brothers Band - Mycology - An Anthology
DYEAR=1900
DGENRE=Southern Rock
TTITLE0=Good Clean Fun
TTITLE1=Seven Turns
TTITLE2=End Of The Line
TTITLE3=Get On With Your Life
TTITLE4=Nobody Knows
TTITLE5=No One Left To Run With
TTITLE6=Back Where It All Begins
TTITLE7=Sailin' 'Cross The Devil's Sea
TTITLE8=Midnight Rider
TTITLE9=EVERY HUNGRY WOMAN
EXTD=ID3G: 56
EXTT0=
EXTT1=
EXTT2=
EXTT3=
EXTT4=
EXTT5=
EXTT6=
EXTT7=
EXTT8=
EXTT9=
PLAYORDER=
